<?xml version="1.0" standalone="no"?>
<!DOCTYPE svg PUBLIC "-//W3C//DTD SVG 20010904//EN"
 "http://www.w3.org/TR/2001/REC-SVG-20010904/DTD/svg10.dtd">
<svg version="1.0" xmlns="http://www.w3.org/2000/svg"
 width="142.000000pt" height="82.000000pt" viewBox="0 0 142.000000 82.000000"
 preserveAspectRatio="xMidYMid meet">

<g transform="translate(0.000000,82.000000) scale(0.100000,-0.100000)"
fill="#000000" stroke="none">
<path d="M0 410 l0 -410 710 0 710 0 0 410 0 410 -710 0 -710 0 0 -410z m820
249 c159 -25 260 -117 236 -214 -10 -40 -25 -29 -28 22 l-3 47 -135 48 c-74
26 -151 50 -170 53 -51 9 -210 -12 -229 -29 -10 -10 -22 -12 -30 -6 -28 17 91
71 184 83 59 8 111 7 175 -4z m-222 -66 c-10 -2 -26 -2 -35 0 -10 3 -2 5 17 5
19 0 27 -2 18 -5z m149 1 c-3 -3 -12 -4 -19 -1 -8 3 -5 6 6 6 11 1 17 -2 13
-5z m-215 -25 c-12 -5 -24 -20 -28 -36 -3 -15 -7 -34 -10 -40 -2 -7 4 -13 13
-13 22 0 7 -13 -17 -15 -17 -1 -19 4 -16 37 6 54 29 88 57 81 l23 -6 -22 -8z
m160 -4 c-2 -14 -8 -25 -13 -25 -14 0 -11 38 4 43 6 3 13 6 13 6 1 1 -1 -10
-4 -24z m-111 -36 c-5 -26 -9 -34 -10 -19 -1 27 9 73 15 67 2 -2 0 -23 -5 -48z
m-148 21 c-5 -19 -23 -29 -23 -12 0 7 20 32 26 32 1 0 0 -9 -3 -20z m23 -59
c-12 -75 -3 -89 67 -94 32 -2 23 -3 -23 -3 l-75 1 -19 36 c-23 42 -16 89 13
89 10 0 21 7 25 15 14 36 21 10 12 -44z m374 22 c-43 -5 -50 -12 -60 -55 l-8
-33 -1 29 c-1 42 24 66 68 64 l36 -1 -35 -4z m67 -9 c-3 -3 -12 -4 -19 -1 -8
3 -5 6 6 6 11 1 17 -2 13 -5z m40 -10 c-3 -3 -12 -4 -19 -1 -8 3 -5 6 6 6 11
1 17 -2 13 -5z m-259 -21 c-10 -2 -26 -2 -35 0 -10 3 -2 5 17 5 19 0 27 -2 18
-5z m120 -17 c-7 -8 -15 -12 -17 -11 -5 6 10 25 20 25 5 0 4 -6 -3 -14z m-298
-26 c-29 -8 -40 -3 -21 10 8 4 21 5 30 2 12 -5 10 -8 -9 -12z m162 9 c-4 -4
-36 -10 -72 -13 l-65 -5 55 12 c62 14 93 16 82 6z m168 -4 c0 -8 -7 -15 -15
-15 -16 0 -20 12 -8 23 11 12 23 8 23 -8z m148 -10 c-3 -3 -9 2 -12 12 -6 14
-5 15 5 6 7 -7 10 -15 7 -18z m-63 -26 c-242 -35 -399 -50 -384 -35 8 8 331
42 404 43 30 0 25 -2 -20 -8z m-419 -57 c7 -4 12 -20 12 -37 0 -32 -12 -45
-40 -45 -15 0 -18 9 -18 45 0 36 3 45 18 45 9 0 22 -4 28 -8z m84 -31 c0 -40
-16 -56 -45 -45 -17 7 -21 74 -5 74 6 0 10 -13 10 -30 0 -16 5 -30 10 -30 6 0
10 13 10 28 0 25 7 42 17 42 2 0 3 -18 3 -39z m65 29 c3 -6 -4 -10 -17 -10
-22 0 -22 -1 6 -23 25 -20 26 -24 12 -36 -16 -14 -46 -9 -46 8 0 5 10 7 23 4
20 -4 20 -3 -6 17 -22 18 -25 25 -16 36 13 16 35 18 44 4z m90 2 c12 -8 18
-72 7 -72 -4 0 -17 -3 -29 -6 -21 -6 -23 -3 -23 40 0 37 3 46 18 46 9 0 22 -4
27 -8z m45 -27 c0 -22 5 -35 13 -35 8 0 12 11 11 30 -1 17 2 33 7 36 5 3 9
-13 9 -34 0 -41 -16 -57 -45 -46 -17 7 -22 84 -5 84 6 0 10 -16 10 -35z m104
29 c20 -8 21 -57 2 -73 -23 -19 -46 -2 -46 33 0 44 10 53 44 40z m46 -11 c0
-14 2 -14 20 2 21 19 29 8 9 -12 -8 -8 -8 -17 0 -31 17 -33 12 -39 -9 -12 -16
20 -20 22 -20 8 0 -10 -4 -18 -10 -18 -5 0 -10 18 -10 40 0 22 5 40 10 40 6 0
10 -7 10 -17z m80 -29 c0 -27 -4 -43 -10 -39 -17 11 -11 85 7 85 2 0 3 -21 3
-46z m53 24 l16 -23 0 23 c1 37 21 14 21 -24 0 -40 -21 -46 -38 -11 l-11 22 0
-22 c-2 -45 -21 -34 -21 11 0 51 10 57 33 24z m91 16 c23 -9 20 -23 -4 -17
-16 4 -20 0 -20 -21 0 -14 5 -26 11 -26 6 0 9 7 5 15 -3 9 0 15 9 15 20 0 19
-36 0 -44 -28 -10 -45 5 -45 39 0 18 6 36 13 38 6 3 13 6 14 6 1 1 8 -2 17 -5z
m-852 -39 c-2 -19 -5 -35 -7 -35 -2 0 -5 16 -7 35 -2 21 0 35 7 35 7 0 9 -14
7 -35z m48 5 c5 0 11 8 13 18 3 9 5 -1 5 -23 0 -22 -2 -32 -5 -22 -2 9 -8 17
-13 17 -5 0 -11 -8 -13 -17 -3 -10 -5 0 -5 22 0 22 2 32 5 23 2 -10 8 -18 13
-18z m60 20 c-13 -9 -13 -11 0 -20 10 -6 11 -10 3 -10 -19 0 -16 -18 5 -23 13
-4 11 -5 -5 -6 -20 -1 -23 4 -23 34 0 27 4 35 18 35 14 0 15 -2 2 -10z m190
-90 c0 -5 -2 -10 -4 -10 -3 0 -8 5 -11 10 -3 6 -1 10 4 10 6 0 11 -4 11 -10z
m83 3 c-7 -2 -19 -2 -25 0 -7 3 -2 5 12 5 14 0 19 -2 13 -5z m60 0 c-7 -2 -19
-2 -25 0 -7 3 -2 5 12 5 14 0 19 -2 13 -5z m57 -1 c0 -5 -7 -9 -15 -9 -8 0
-15 4 -15 9 0 4 7 8 15 8 8 0 15 -4 15 -8z m60 -2 c0 -5 -7 -7 -15 -4 -8 4
-15 8 -15 10 0 2 7 4 15 4 8 0 15 -4 15 -10z m-410 -30 c0 -5 -4 -10 -10 -10
-5 0 -10 5 -10 10 0 6 5 10 10 10 6 0 10 -4 10 -10z m40 0 c0 -5 -4 -10 -10
-10 -5 0 -10 5 -10 10 0 6 5 10 10 10 6 0 10 -4 10 -10z m40 6 c0 -3 -4 -8
-10 -11 -5 -3 -10 -1 -10 4 0 6 5 11 10 11 6 0 10 -2 10 -4z m30 -6 c0 -5 -4
-10 -10 -10 -5 0 -10 5 -10 10 0 6 5 10 10 10 6 0 10 -4 10 -10z m40 0 c0 -5
-7 -10 -15 -10 -8 0 -15 5 -15 10 0 6 7 10 15 10 8 0 15 -4 15 -10z m50 0 c0
-5 -4 -10 -10 -10 -5 0 -10 5 -10 10 0 6 5 10 10 10 6 0 10 -4 10 -10z m40 -6
c0 -2 -7 -4 -15 -4 -8 0 -15 4 -15 10 0 5 7 7 15 4 8 -4 15 -8 15 -10z m150 6
c0 -5 -5 -10 -11 -10 -5 0 -7 5 -4 10 3 6 8 10 11 10 2 0 4 -4 4 -10z m35 -8
c-3 -3 -11 0 -18 7 -9 10 -8 11 6 5 10 -3 15 -9 12 -12z m40 8 c3 -5 -1 -10
-10 -10 -9 0 -13 5 -10 10 3 6 8 10 10 10 2 0 7 -4 10 -10z m45 -2 c0 -4 -7
-8 -15 -8 -8 0 -15 4 -15 8 0 5 7 9 15 9 8 0 15 -4 15 -9z m60 2 c0 -5 -2 -10
-4 -10 -3 0 -8 5 -11 10 -3 6 -1 10 4 10 6 0 11 -4 11 -10z"/>
<path d="M837 603 c18 -2 50 -2 70 0 21 2 7 4 -32 4 -38 0 -55 -2 -38 -4z"/>
<path d="M888 583 c17 -2 47 -2 65 0 17 2 3 4 -33 4 -36 0 -50 -2 -32 -4z"/>
<path d="M470 319 c0 -5 5 -7 10 -4 6 3 10 8 10 11 0 2 -4 4 -10 4 -5 0 -10
-5 -10 -11z"/>
<path d="M470 290 c0 -5 5 -10 10 -10 6 0 10 5 10 10 0 6 -4 10 -10 10 -5 0
-10 -4 -10 -10z"/>
<path d="M710 319 c0 -5 5 -7 10 -4 6 3 10 8 10 11 0 2 -4 4 -10 4 -5 0 -10
-5 -10 -11z"/>
<path d="M710 290 c0 -5 5 -10 10 -10 6 0 10 5 10 10 0 6 -4 10 -10 10 -5 0
-10 -4 -10 -10z"/>
<path d="M852 305 c-1 -16 3 -25 13 -25 9 0 15 10 15 25 0 14 -6 25 -13 25 -7
0 -14 -11 -15 -25z"/>
</g>
</svg>
